{
  "accessors": [
    {
      "bufferView": 0,
      "componentType": 5125,
      "type": "SCALAR",
      "count": 326277
    },
    {
      "bufferView": 1,
      "componentType": 5126,
      "type": "VEC3",
      "count": 58588,
      "min": [-2.26956, -2.3915, -5.47297],
      "max": [0.954905, 0.967187, -1.41058]
    },
    {
      "bufferView": 1,
      "componentType": 5126,
      "type": "VEC3",
      "byteOffset": 16,
      "count": 58588
    },
    {
      "bufferView": 1,
      "componentType": 5121,
      "type": "VEC3",
      "normalized": true,
      "byteOffset": 32,
      "count": 58588
    }
  ],
  "asset": {
    "copyright": "2019",
    "generator": "DroneMOM",
    "version": "2.0"
  },
  "bufferViews": [
    {
      "buffer": 0,
      "byteLength": 1305108
    },
    {
      "buffer": 0,
      "byteLength": 2812224,
      "byteOffset": 1305108,
      "byteStride": 48
    }
  ],
  "buffers": [
    {
      "uri": "mesh_unlabeled_21.bin",
      "byteLength": 4117332
    }
  ],
  "meshes": [
    {
      "name": "mesh",
      "primitives": [
        {
          "indices": 0,
          "attributes": {
            "POSITION": 1,
            "NORMAL": 2,
            "COLOR_0": 3
          }
        }
      ]
    }
  ],
  "nodes": [
    {
      "mesh": 0,
      "name": "node"
    }
  ],
  "scenes": [
    {
      "name": "scene",
      "nodes": [ 0 ]
    }
  ]
}
