{
  "accessors": [
    {
      "bufferView": 0,
      "componentType": 5125,
      "type": "SCALAR",
      "count": 644604
    },
    {
      "bufferView": 1,
      "componentType": 5126,
      "type": "VEC3",
      "count": 115133,
      "min": [-2.05033, -3.17489, -5.30792],
      "max": [2.65561, 0.464886, -1.46861]
    },
    {
      "bufferView": 1,
      "componentType": 5126,
      "type": "VEC3",
      "byteOffset": 16,
      "count": 115133
    },
    {
      "bufferView": 1,
      "componentType": 5121,
      "type": "VEC3",
      "normalized": true,
      "byteOffset": 32,
      "count": 115133
    }
  ],
  "asset": {
    "copyright": "2019",
    "generator": "DroneMOM",
    "version": "2.0"
  },
  "bufferViews": [
    {
      "buffer": 0,
      "byteLength": 2578416
    },
    {
      "buffer": 0,
      "byteLength": 5526384,
      "byteOffset": 2578416,
      "byteStride": 48
    }
  ],
  "buffers": [
    {
      "uri": "mesh_chair_104.bin",
      "byteLength": 8104800
    }
  ],
  "meshes": [
    {
      "name": "mesh",
      "primitives": [
        {
          "indices": 0,
          "attributes": {
            "POSITION": 1,
            "NORMAL": 2,
            "COLOR_0": 3
          }
        }
      ]
    }
  ],
  "nodes": [
    {
      "mesh": 0,
      "name": "node"
    }
  ],
  "scenes": [
    {
      "name": "scene",
      "nodes": [ 0 ]
    }
  ]
}
